<svg width="20" height="20" viewBox="0 0 82 57" version="1.1" xmlns="http://www.w3.org/2000/svg" xmlns:xlink="http://www.w3.org/1999/xlink">
    <defs>

        <linearGradient x1="50%" y1="0%" x2="75.0136719%" y2="100%" id="linearGradient-2">
            <stop stop-color="#000" offset="0%"></stop>
            <stop stop-color="#000" offset="100%"></stop>
        </linearGradient>
        <rect id="path-3" x="28" y="11" width="67" height="43" rx="8"></rect>
        <filter x="-1.5%" y="-2.3%" width="104.5%" height="109.3%" filterUnits="objectBoundingBox" id="filter-4">
            <feOffset dx="1" dy="2" in="SourceAlpha" result="shadowOffsetOuter1"></feOffset>
            <feComposite in="shadowOffsetOuter1" in2="SourceAlpha" operator="out" result="shadowOffsetOuter1"></feComposite>
            <feColorMatrix values="0 0 0 0 0.376470588   0 0 0 0 0.419607843   0 0 0 0 0.458823529  0 0 0 0.2 0" type="matrix" in="shadowOffsetOuter1"></feColorMatrix>
        </filter>
    </defs>
    <g id="Page-1" stroke="none" stroke-width="1" fill="none" fill-rule="evenodd">
        <g id="tarjeta-gen" transform="translate(-15.000000, -10.000000)" fill-rule="nonzero">
            <g id="bg">
                <use fill="black" fill-opacity="1" filter="url(#filter-4)" xlink:href="#path-3"></use>
                <rect stroke="url(#linearGradient-2)" stroke-width="1" stroke-linejoin="square" fill="url(#linearGradient-1)" fill-rule="evenodd" x="28.5" y="11.5" width="66" height="42" rx="8"></rect>
            </g>
            <g id="chip" transform="translate(37.000000, 20.000000)" fill="#000">
                <polygon id="middle" points="5.5193125 10.4578571 7.3125 10.4578571 7.3125 0 5.5193125 0"></polygon>
                <path d="M8.8066875,5.82764286 L8.8066875,10.4421429 C10.7063125,10.3549286 12.22325,8.85028571 12.22325,6.98892857 L12.22325,5.82764286 L8.8066875,5.82764286 Z" id="low-right"></path>
                <path d="M8.8066875,3.96864286 L12.22325,3.96864286 L12.22325,3.46814286 C12.22325,1.60757143 10.7063125,0.102142857 8.8066875,0.0157142857 L8.8066875,3.96864286 Z" id="up-right"></path>
                <path d="M0.736125,3.46814286 L0.736125,3.96864286 L4.1526875,3.96864286 L4.1526875,0.0157142857 C2.25225,0.102142857 0.736125,1.60757143 0.736125,3.46814286 Z" id="up-left"></path>
                <path d="M0.736125,5.82764286 L0.736125,6.98892857 C0.736125,8.85028571 2.25225,10.3549286 4.1526875,10.4421429 L4.1526875,5.82764286 L0.736125,5.82764286 Z" id="low-left"></path>
            </g>
            <polygon id="line1" fill="#000" points="31 39 71 39 71 35 31 35"></polygon>
            <polygon id="line2" fill="#000" points="74 39 89 39 89 35 74 35"></polygon>
            <polygon id="line3" fill="#000" points="31 45 56 45 56 41 31 41"></polygon>
            <path d="M53.7305915,23.0849315 L52,23.0849315 L52,22 L56.7308226,22 L56.7308226,23.0849315 L55.0002311,23.0849315 L55.0002311,27.8684932 L53.7305915,27.8684932 L53.7305915,23.0849315 Z M58.2268946,22 L59.5288817,22 L61.6880776,27.8684932 L60.3699168,27.8684932 L59.9332255,26.5616438 L57.7740296,26.5616438 L57.3211645,27.8684932 L56.0434381,27.8684932 L58.2268946,22 Z M58.1055915,25.6 L59.6016636,25.6 L58.8738447,23.4465753 L58.857671,23.4465753 L58.1055915,25.6 Z M62.189464,22 L65.3029113,22 C65.5616926,22 65.7948619,22.0424653 66.0024261,22.1273973 C66.2099903,22.2123292 66.3878998,22.3287664 66.5361599,22.4767123 C66.68442,22.6246583 66.7976352,22.7958894 66.8758087,22.990411 C66.9539822,23.1849325 66.9930684,23.3945194 66.9930684,23.6191781 C66.9930684,23.9643853 66.921635,24.2630124 66.7787662,24.5150685 C66.6358973,24.7671245 66.402728,24.9589035 66.0792514,25.090411 L66.0792514,25.1068493 C66.2355984,25.1506852 66.3649872,25.2178078 66.4674214,25.3082192 C66.5698557,25.3986306 66.6534193,25.5054788 66.7181146,25.6287671 C66.7828099,25.7520554 66.8299829,25.8876705 66.8596349,26.0356164 C66.889287,26.1835624 66.909504,26.3315061 66.9202865,26.4794521 C66.9256778,26.5726032 66.931069,26.6821912 66.9364603,26.8082192 C66.9418515,26.9342472 66.9512861,27.063013 66.9647643,27.1945205 C66.9782425,27.3260281 66.9998073,27.4506843 67.0294593,27.5684932 C67.0591114,27.686302 67.1035887,27.786301 67.1628928,27.8684932 L65.8932532,27.8684932 C65.8231666,27.6821908 65.780037,27.4602753 65.7638632,27.2027397 C65.7476894,26.9452042 65.723429,26.6986313 65.6910813,26.4630137 C65.6479511,26.1561628 65.5563008,25.9315076 65.4161275,25.7890411 C65.2759543,25.6465746 65.0468285,25.5753425 64.7287431,25.5753425 L63.4591035,25.5753425 L63.4591035,27.8684932 L62.189464,27.8684932 L62.189464,22 Z M63.4591035,24.6547945 L64.8500462,24.6547945 C65.1411752,24.6547945 65.3595187,24.5890418 65.5050832,24.4575342 C65.6506477,24.3260267 65.7234288,24.1123302 65.7234288,23.8164384 C65.7234288,23.5315054 65.6506477,23.3246582 65.5050832,23.1958904 C65.3595187,23.0671226 65.1411752,23.0027397 64.8500462,23.0027397 L63.4591035,23.0027397 L63.4591035,24.6547945 Z M71.4085028,26.0191781 C71.4085028,26.2109599 71.3896336,26.4219167 71.3518946,26.6520548 C71.3141557,26.8821929 71.2278965,27.0972593 71.0931146,27.2972603 C70.9583327,27.4972613 70.7642496,27.6643829 70.5108595,27.7986301 C70.2574695,27.9328774 69.9151285,28 69.4838262,28 C69.2412187,28 69.0067017,27.9657538 68.780268,27.8972603 C68.5538344,27.8287668 68.3516645,27.7219185 68.1737523,27.5767123 C67.9958401,27.4315061 67.8529734,27.2452066 67.7451479,27.0178082 C67.6373223,26.7904098 67.5834104,26.5150701 67.5834104,26.1917808 L67.5834104,25.6821918 L68.7317468,25.6821918 L68.7317468,25.9452055 C68.7317468,26.0876719 68.7425292,26.2191775 68.7640943,26.339726 C68.7856594,26.4602746 68.8233978,26.5630133 68.8773105,26.6479452 C68.9312233,26.7328771 69.0053523,26.7999998 69.0996996,26.8493151 C69.194047,26.8986304 69.3166967,26.9232877 69.4676525,26.9232877 C69.6347821,26.9232877 69.7641708,26.893151 69.8558226,26.8328767 C69.9474743,26.7726024 70.0135164,26.694521 70.053951,26.5986301 C70.0943856,26.5027392 70.118646,26.3986307 70.1267329,26.2863014 C70.1348198,26.173972 70.1388632,26.0657539 70.1388632,25.9616438 L70.1388632,22 L71.4085028,22 L71.4085028,26.0191781 Z M72.5244917,22 L76.8428835,22 L76.8428835,23.0849315 L73.7941312,23.0849315 L73.7941312,24.3424658 L76.5921904,24.3424658 L76.5921904,25.3452055 L73.7941312,25.3452055 L73.7941312,26.7835616 L76.9075786,26.7835616 L76.9075786,27.8684932 L72.5244917,27.8684932 L72.5244917,22 Z M79.0425139,23.0849315 L77.3119224,23.0849315 L77.3119224,22 L82.0427449,22 L82.0427449,23.0849315 L80.3121534,23.0849315 L80.3121534,27.8684932 L79.0425139,27.8684932 L79.0425139,23.0849315 Z M83.538817,22 L84.8408041,22 L87,27.8684932 L85.6818392,27.8684932 L85.2451479,26.5616438 L83.0859519,26.5616438 L82.6330869,27.8684932 L81.3553604,27.8684932 L83.538817,22 Z M83.4175139,25.6 L84.913586,25.6 L84.1857671,23.4465753 L84.1695933,23.4465753 L83.4175139,25.6 Z" id="tarjeta" fill="#99CCD3"></path>
            <circle id="plus-o" fill="#000" cx="32" cy="50" r="16"></circle>
            <path d="M33,49 L40.5,49 C41.3284271,49 42,49.6715729 42,50.5 C42,51.3284271 41.3284271,52 40.5,52 L33,52 L33,59.5 C33,60.3284271 32.3284271,61 31.5,61 C30.6715729,61 30,60.3284271 30,59.5 L30,52 L22.5,52 C21.6715729,52 21,51.3284271 21,50.5 C21,49.6715729 21.6715729,49 22.5,49 L30,49 L30,41.5 C30,40.6715729 30.6715729,40 31.5,40 C32.3284271,40 33,40.6715729 33,41.5 L33,49 Z" id="plus" fill="#FFFFFF"></path>
        </g>
    </g>
</svg>
