<svg width="90" height="71" viewBox="0 0 90 71" xmlns="http://www.w3.org/2000/svg"><title>Kiwi</title><path d="M30.854.002c-15.498.1-32.694 12.6-30.695 31.2.6 5.9 2.7 9.5 7.699 11.7 5.299 2.4 8.398 8 7.398 16.7-1.5.7-2.599 1.6-2.799 2.9 1.1 0 2.2 0 3.3.6 2.999 1.8 4.598 4 6.298 7.6.3.5 1.2.4 1.2-.5 0-1.2-.3-2.6-.8-4-.4-1.2.4-1.2 1-.9.9.5 2.4 1.4 4.5 1.9.799.2.899-.6.799-1-.3-1.1-1.6-1.6-3.6-2.8-.7-.4-.1-1.4.8-1.2l3 .4c.5.1.7-.9.1-1.2-2.1-1-4.2-1.5-7.899-1.1-1.7-4.3-4.399-9.2-2.3-12.1 1.9-2.6 4.6-3 5.8 6.4-.7.5-1.6.7-1.7 1.9 1.1-.4 1.6-.2 2.2 0 2.6 1 5.199 3.2 7.798 5.5.5.5 1.2-.3 1-.9-.3-1-1.2-1.6-2.2-2.9-.5-.7.7-1 1.6-1 2 .1 3.4 1.2 5.2 1.6.699.2 1.399-.3.999-1-.5-.9-1.9-1.3-2.8-2-.6-.4-.4-1 .4-1 .6.1 1.2.3 2 .3 1.5-.1 1.1-1.1-.1-1.4-2.8-.8-5.899-.9-9.098-.8-6.4-1.2-4.6-12.6 0-13.4 4.299-.8 9.298-2 14.697-4.7 4.799-.8 9.498-1.8 13.697-5 7.099-2.1 16.397 2.4 29.995 22.1.6.8 2.3 1.5 1.4-.9-2.3-6-9.999-13.8-13.498-19.5-3.6-5.8-2.1-9.1-5.899-13.5-3.1-3.7-6.999-3.8-11.398-2.6-3.4 1-5.799-1-7.798-4.6-4.4-7.5-12.098-10.9-20.296-10.8zm34.593 20.3c.9 0 1.6.7 1.6 1.6 0 .9-.7 1.6-1.6 1.6-.9 0-1.6-.7-1.6-1.6 0-.8.7-1.6 1.6-1.6z"/></svg>
