<svg width="24" height="22" viewBox="0 0 24 22" version="1.1" xmlns="http://www.w3.org/2000/svg">
  <path fill="#00C1D5" d="M23.4718261,14.4846928 L23.4718261,20.2702013 C23.4718261,20.3367014 23.4482896,20.3961032 23.433947,20.4588673 C23.4486573,20.5216315 23.4718261,20.5806596 23.4718261,20.6479069 C23.4718261,21.1485256 23.0724403,21.5546246 22.579276,21.5546246 L0.929326031,21.5546246 C0.436161723,21.5546246 0.0367758619,21.1485256 0.0367758619,20.6479069 C0.0367758619,20.5806596 0.0610479308,20.5216315 0.0746549997,20.4588673 C0.0606801722,20.3961032 0.0367758619,20.337075 0.0367758619,20.2702013 L0.0367758619,14.4846928 C0.0367758619,13.9837004 0.436161723,13.5776015 0.929326031,13.5776015 C1.42322586,13.5776015 1.82224396,13.9837004 1.82224396,14.4846928 L1.82224396,19.7411893 L21.686358,19.7411893 L21.686358,14.4846928 C21.686358,13.9837004 22.0857439,13.5776015 22.579276,13.5776015 C23.0724403,13.5776015 23.4718261,13.9837004 23.4718261,14.4846928 Z M11.8102003,17.2997391 C11.3166682,17.2997391 10.9176501,16.8936401 10.9176501,16.3930214 L10.9176501,3.14381083 L7.02933825,7.09384195 C6.85502067,7.27092648 6.62664256,7.35984234 6.39826446,7.35984234 C6.16988636,7.35984234 5.9411405,7.27092648 5.76682291,7.09384195 C5.4185555,6.73967288 5.4185555,6.16582934 5.76682291,5.81166027 L11.1791265,0.313447092 C11.5281294,-0.0414691624 12.0930067,-0.0414691624 12.4412741,0.313447092 L17.8535777,5.81166027 C18.2029484,6.16582934 18.2029484,6.73967288 17.8535777,7.09384195 C17.6796279,7.27092648 17.450882,7.35984234 17.2228717,7.35984234 C16.9944936,7.35984234 16.7657477,7.27092648 16.5914301,7.09384195 L12.7031182,3.14381083 L12.7031182,16.3930214 C12.7031182,16.8936401 12.3033646,17.2997391 11.8102003,17.2997391 Z"/>
</svg>
