<svg xmlns="http://www.w3.org/2000/svg" viewBox="0 0 94 94">
	<path fill="#79797b" d="M54.5,77.6c1.6-0.3,3.2,0.7,3.6,2.3c0.3,1.5-0.6,3.1-2.1,3.5c-0.7,0.2-1.5,0.3-2.2,0.5
	c-1.6,0.3-3.2-0.8-3.5-2.4c-0.3-1.6,0.8-3.2,2.4-3.5C53.2,77.9,53.9,77.8,54.5,77.6z M76.5,37.5c-0.2-0.6-0.4-1.2-0.6-1.8
	c-0.6-1.5,0.1-3.3,1.7-3.9c1.5-0.6,3.2,0.1,3.9,1.6c0,0,0,0,0,0c0.3,0.7,0.5,1.4,0.8,2.1c0.5,1.6-0.3,3.3-1.9,3.8
	c-0.9,0.3-1.9,0.2-2.7-0.4C77.1,38.6,76.7,38.1,76.5,37.5L76.5,37.5z M64.1,73.3c1.4-0.9,3.2-0.5,4.1,0.8c0,0,0,0,0,0
	c0.9,1.4,0.5,3.2-0.8,4.2c-0.6,0.4-1.3,0.8-1.9,1.2c-1.4,0.8-3.2,0.3-4-1.1c0,0,0,0,0,0c-0.8-1.4-0.3-3.3,1.1-4.1
	C63.1,74,63.6,73.7,64.1,73.3L64.1,73.3z M84,45.8c0,0.8,0,1.5,0,2.3c0,1.6-1.4,3-3,2.9c0,0,0,0,0,0C79.3,51,78,49.6,78,48
	c0-0.6,0-1.3,0-1.9c-0.1-1.6,1.2-3,2.9-3.1C82.5,42.9,83.9,44.2,84,45.8L84,45.8z M76,65.5c1.3,1,1.6,2.9,0.6,4.2
	c-0.5,0.6-0.9,1.2-1.4,1.8c-1.1,1.3-2.9,1.4-4.2,0.4c0,0,0,0,0,0c-1.2-1.1-1.4-3-0.3-4.2c0.4-0.5,0.8-1,1.2-1.5
	C72.8,64.7,74.7,64.5,76,65.5C76,65.5,76,65.5,76,65.5z M80.4,54.6c1.6,0.5,2.4,2.2,2,3.8c-0.2,0.7-0.5,1.4-0.7,2.1
	c-0.6,1.5-2.3,2.3-3.8,1.7c-0.2-0.1-0.5-0.2-0.7-0.4c-1.1-0.8-1.5-2.2-1.1-3.5c0.2-0.6,0.4-1.2,0.6-1.8C77.1,55,78.8,54.1,80.4,54.6
	C80.4,54.6,80.4,54.6,80.4,54.6L80.4,54.6z M41.5,78.1c1.6,0.3,2.7,1.8,2.4,3.5c-0.3,1.6-1.8,2.7-3.4,2.4c0,0,0,0,0,0
	c-5.3-1-10.4-3.1-14.8-6.2c-1.7-1.2-3.3-2.5-4.7-4l0,0l0,0c-6-6-9.8-13.9-10.7-22.3c0-0.1,0-0.1,0-0.1c-0.1-0.8-0.1-1.5-0.2-2.3
	v-0.1c-0.4-7.7,1.7-15.3,5.9-21.8L16,27c0.4-0.6,0.8-1.3,1.3-1.9c0-0.1,0.1-0.1,0.1-0.2c5-6.8,12.2-11.6,20.3-13.7l0.1,0h0
	c0.9-0.2,1.9-0.4,2.8-0.6c9.5-1.7,19,0.4,26.9,5.8l2.3-3.4c0.6-0.9,1.4-0.8,1.7,0.3l2.7,9.8c0.3,1.1-0.4,2.1-1.5,2.2l-10.1,0.9
	c-1.1,0.1-1.5-0.6-0.9-1.5l2.3-3.4c-10.8-7.3-24.7-6.8-34.8,0.3l-0.1,0.1c-3,2.1-5.6,4.7-7.6,7.6c-9.9,14.1-6.5,33.6,7.5,43.6
	c1,0.7,1.9,1.3,3,1.9l0,0c0.6,0.3,1.1,0.6,1.7,0.9c0,0,0.1,0,0.1,0C36.3,76.8,38.8,77.6,41.5,78.1L41.5,78.1z M45.2,20.6
	c1.3,0,2.4,1.2,2.4,2.6v22.6l19.3,10.7c1.2,0.7,1.6,2.2,1,3.5c-0.4,0.8-1.2,1.4-2.1,1.4c-0.4,0-0.8-0.1-1.1-0.3L42.8,48.9V23.2
	C42.8,21.7,43.8,20.6,45.2,20.6L45.2,20.6z"/>
</svg>
