<svg xmlns="http://www.w3.org/2000/svg" viewBox="0 0 25 25" aria-hidden="true"><path d="M23.7,20.9,13.7,2.8A1.4,1.4,0,0,0,12.5,2a1.4,1.4,0,0,0-1.2.8L1.3,20.9a1.6,1.6,0,0,0-.2,1.5,1.6,1.6,0,0,0,1.3.6H22.6a1.6,1.6,0,0,0,1.3-.6A1.6,1.6,0,0,0,23.7,20.9Z" fill="#feb200"/><path d="M14,19.3a1.2,1.2,0,0,1-.5,1,1.9,1.9,0,0,1-1,.3,1.3,1.3,0,0,1-1.2-.4,2.1,2.1,0,0,1-.4-1.1,1.6,1.6,0,0,1,.5-1.1,1.7,1.7,0,0,1,1.2-.4,1.6,1.6,0,0,1,1.1.5,1.5,1.5,0,0,1,.3,1.3Z"/><path d="M11.6,7.2a1.6,1.6,0,0,1,.9-.3,1.4,1.4,0,0,1,.9.3.8.8,0,0,1,.3.8v6.9a.9.9,0,0,1-.3.9,1.6,1.6,0,0,1-.9.3c-.9,0-1.3-.4-1.3-1.2V8.1A1.2,1.2,0,0,1,11.6,7.2Z"/></svg>
