<svg width="24" height="24" viewBox="0 0 24 24" xmlns="http://www.w3.org/2000/svg"><title>Show password</title><path fill="#FFFFFF" fill-rule="nonzero" d="M23.111 10.594c.539.69.539 1.654 0 2.344a14.301 14.301 0 0 1-11.346 5.544A14.3 14.3 0 0 1 .42 12.938a1.903 1.903 0 0 1 0-2.344A14.3 14.3 0 0 1 11.765 5.05a14.407 14.407 0 0 1 9.529 3.61.599.599 0 0 1-.794.896 13.142 13.142 0 0 0-3.812-2.353 6.69 6.69 0 0 1 1.793 4.563 6.688 6.688 0 0 1-1.808 4.578 13.153 13.153 0 0 0 5.494-4.143c.2-.256.2-.614 0-.87a.599.599 0 0 1 .944-.737zM1.363 12.2a13.153 13.153 0 0 0 5.493 4.143 6.69 6.69 0 0 1-1.807-4.578c0-1.768.687-3.378 1.807-4.578a13.153 13.153 0 0 0-5.493 4.142c-.2.257-.2.615 0 .871zm10.41 5.083a5.524 5.524 0 0 0 5.51-5.518 5.524 5.524 0 0 0-5.512-5.518H11.758a5.524 5.524 0 0 0-5.511 5.518 5.524 5.524 0 0 0 5.51 5.518h.015zm-.008-8.06a2.544 2.544 0 0 1 2.541 2.542 2.544 2.544 0 0 1-2.54 2.54 2.544 2.544 0 0 1-2.542-2.54 2.544 2.544 0 0 1 2.541-2.541zm0 3.885c.74 0 1.344-.603 1.344-1.343s-.603-1.344-1.344-1.344c-.74 0-1.343.603-1.343 1.344 0 .74.603 1.343 1.343 1.343z"/></svg>
